<?xml version="1.0" encoding="UTF-8" standalone="no"?>
<svg
   version="1.0"
   width="618.05219pt"
   height="607.68719pt"
   viewBox="0 0 618.05219 607.68719"
   preserveAspectRatio="xMidYMid"
   id="svg96"
   xmlns="http://www.w3.org/2000/svg"
   xmlns:svg="http://www.w3.org/2000/svg">
  <defs
     id="defs96" />
  <g
     transform="matrix(0.1,0,0,-0.1,-211.04766,810.91214)"
     fill="#000000"
     stroke="none"
     id="g96">
    <path
       d="m 5150,8099 c -141,-28 -245,-133 -290,-293 l -17,-59 -22,46 c -29,60 -119,148 -184,180 -98,48 -115,48 -1022,45 -836,-3 -851,-4 -905,-24 -158,-60 -258,-141 -306,-247 -23,-51 -28,-76 -28,-142 -1,-69 3,-88 28,-140 17,-33 30,-64 30,-69 1,-5 -18,-16 -42,-24 -62,-20 -145,-105 -185,-189 l -32,-68 v -810 -810 l 23,-42 c 66,-125 188,-176 365,-153 45,6 92,13 104,15 14,3 32,-3 49,-18 21,-19 26,-29 20,-50 -3,-15 -16,-32 -28,-38 -23,-12 -431,-58 -519,-59 -74,0 -83,-16 -77,-152 4,-84 11,-127 27,-166 60,-148 176,-266 309,-315 42,-15 85,-21 162,-22 115,-3 115,-3 78,-63 -45,-73 -175,-129 -273,-116 -27,3 -72,15 -98,25 -64,25 -99,24 -126,-5 l -22,-23 3,-649 3,-649 23,-49 c 50,-107 142,-197 234,-228 18,-6 34,-12 36,-14 2,-1 -13,-24 -32,-51 -36,-51 -66,-141 -66,-200 0,-47 36,-149 70,-199 41,-59 113,-119 184,-154 127,-62 98,-60 1041,-60 928,0 904,-1 1008,52 53,27 123,93 154,145 14,24 26,43 28,43 1,0 15,-26 31,-57 114,-234 439,-284 617,-95 25,28 57,71 69,96 20,42 38,59 38,37 0,-23 105,-134 153,-161 110,-63 68,-61 1012,-60 710,1 870,3 922,15 152,35 287,134 345,253 29,58 33,76 32,142 0,86 -22,160 -64,218 l -29,40 59,21 c 107,39 192,135 231,262 18,58 19,107 19,924 0,602 -3,880 -11,917 -27,126 -126,265 -235,331 -30,17 -53,35 -52,38 2,4 31,28 65,53 119,87 194,212 218,362 19,115 22,1370 4,1456 -25,117 -105,220 -211,272 l -56,27 30,66 c 39,82 42,176 8,266 -30,81 -118,173 -211,222 -139,73 -82,69 -1013,72 -570,3 -856,0 -891,-7 -121,-25 -234,-108 -297,-217 -29,-50 -31,-48 -43,21 -15,92 -96,202 -182,248 -47,26 -143,49 -192,47 -14,-1 -46,-5 -71,-10 z m 165,-205 c 50,-23 86,-75 93,-129 3,-31 1,-45 -7,-45 -7,0 -9,5 -5,11 4,8 0,8 -15,0 -18,-10 -20,-9 -15,6 5,16 4,17 -8,2 -12,-15 -15,-15 -27,-1 -13,13 -16,13 -26,-2 -14,-18 -35,-22 -35,-5 0,5 5,7 12,3 7,-4 8,-3 4,4 -5,9 -13,9 -26,2 -13,-7 -21,-7 -25,0 -4,6 -10,8 -15,5 -5,-3 -11,-1 -14,4 -8,13 -42,6 -38,-8 1,-6 -5,-11 -13,-11 -8,0 -15,-6 -15,-12 0,-10 -2,-10 -9,0 -9,15 -62,13 -73,-3 -16,-21 -7,72 10,104 20,40 52,66 108,87 45,16 88,13 139,-12 z m -774,-81 c 47,-24 119,-98 119,-121 0,-4 -403,-7 -896,-7 -896,0 -897,0 -904,21 -9,23 -75,84 -91,84 -6,0 -9,6 -7,13 11,32 86,35 909,36 l 815,1 z m 3113,6 28,-16 -36,-21 c -20,-12 -43,-37 -52,-55 l -16,-34 -457,-6 c -578,-9 -1214,-9 -1274,-1 l -47,7 18,29 c 9,17 34,43 54,59 75,60 38,58 933,56 728,-2 823,-4 849,-18 z M 2669,7696 c 29,-15 51,-53 51,-87 0,-32 -53,-79 -90,-79 -74,0 -110,103 -54,155 31,29 53,31 93,11 z m 5190,-1 c 33,-17 41,-33 41,-85 0,-45 -35,-80 -80,-80 -15,0 -39,9 -54,21 -36,29 -37,99 -1,134 28,29 54,31 94,10 z M 5140,7461 v -89 l -82,-7 c -234,-20 -572,-118 -764,-221 -34,-19 -66,-34 -70,-34 -13,0 -96,148 -90,159 14,23 272,136 406,178 92,28 267,71 340,83 41,6 82,13 90,15 8,1 50,3 93,4 l 77,1 z m 532,54 c 162,-33 323,-84 468,-148 103,-46 210,-103 210,-112 0,-5 -71,-127 -82,-142 -7,-9 -39,2 -126,46 -140,70 -223,101 -397,147 -108,28 -328,64 -397,64 -16,0 -18,11 -18,91 v 92 l 108,-6 c 59,-3 164,-17 234,-32 z m 1296,-52 c -72,-76 -106,-129 -128,-200 -11,-35 -23,-57 -31,-55 -17,4 -119,75 -119,83 0,21 90,137 127,163 53,37 125,65 172,66 h 34 z m -3378,19 c 55,-27 135,-103 161,-154 10,-21 19,-39 19,-42 0,-2 -29,-25 -65,-50 -42,-29 -67,-41 -70,-33 -2,6 -9,30 -15,52 -19,61 -47,103 -124,184 l -71,73 60,-4 c 33,-3 80,-14 105,-26 z m 3895,9 c 6,-1 -8,-10 -30,-20 -49,-22 -139,-91 -182,-140 -33,-37 -87,-137 -98,-181 -5,-23 -4,-24 7,-6 95,144 302,258 512,280 l 58,6 -26,-45 c -34,-58 -52,-107 -61,-173 -8,-59 2,-66 45,-32 14,11 28,20 33,20 4,0 7,-166 7,-370 v -370 h -73 -74 l -6,233 c -4,127 -7,275 -7,326 v 95 l -36,-35 c -44,-42 -97,-135 -119,-209 -9,-30 -19,-108 -22,-172 l -6,-117 -46,51 c -87,96 -93,110 -88,218 5,107 28,171 90,253 21,26 37,50 37,53 0,4 -25,4 -55,1 -75,-8 -146,-49 -215,-124 l -57,-63 -21,23 c -51,54 -52,153 -4,256 38,81 142,182 218,211 56,20 161,39 194,34 8,-1 20,-3 25,-3 z m -4292,-40 c 133,-64 227,-179 244,-301 12,-81 6,-113 -28,-150 l -30,-32 -67,70 c -71,74 -132,112 -181,112 -62,0 -64,-7 -20,-70 52,-74 79,-161 79,-254 0,-71 -1,-75 -49,-142 -26,-38 -57,-77 -68,-87 -20,-17 -20,-16 -26,90 -12,203 -39,283 -124,374 -25,27 -48,48 -50,45 -2,-2 -4,-198 -3,-435 0,-238 -3,-461 -6,-497 l -7,-64 h -67 -67 l -7,46 c -9,66 -8,1044 2,1044 4,0 18,-9 32,-20 14,-11 29,-20 34,-20 5,0 6,27 3,59 -5,60 -44,160 -74,193 -15,17 -14,18 10,18 51,0 164,-29 246,-64 108,-45 197,-104 260,-171 28,-30 51,-49 51,-43 0,32 -68,142 -118,192 -66,65 -83,78 -160,118 l -57,29 91,-4 c 76,-4 101,-9 157,-36 z m -667,-423 c -2,-101 -4,-331 -6,-513 -1,-181 -4,-323 -7,-314 -2,10 -13,19 -24,22 -14,4 -19,0 -19,-15 0,-10 -4,-16 -10,-13 -14,9 -88,-13 -93,-28 -12,-33 -18,175 -15,513 3,369 3,376 26,422 15,31 39,57 69,77 83,55 82,57 79,-151 z m 5463,162 c 79,-40 107,-97 113,-225 3,-98 -4,-486 -9,-452 -3,20 -9,27 -19,23 -8,-3 -14,-1 -14,4 0,6 -5,10 -11,10 -5,0 -8,-4 -5,-9 11,-17 -27,-21 -52,-5 -13,9 -22,12 -19,7 3,-5 2,-15 -4,-23 -6,-11 -9,-12 -9,-2 0,8 -5,10 -12,6 -10,-6 -10,-4 0,8 7,9 9,18 4,20 -15,5 -27,658 -13,658 7,0 29,-9 50,-20 z m -2724,-95 v -80 h -30 c -30,0 -30,1 -33,60 -5,86 3,107 36,103 27,-3 27,-3 27,-83 z m 249,56 c 16,-17 16,-26 6,-74 -13,-63 -29,-82 -61,-72 -19,6 -21,13 -17,60 4,50 29,105 47,105 4,0 16,-9 25,-19 z m -507,-39 c 4,-15 7,-49 7,-77 1,-45 -1,-50 -22,-53 -26,-4 -46,35 -58,109 -6,34 -4,45 11,55 24,18 53,2 62,-34 z m -1007,-34 c 42,-71 42,-72 22,-87 -11,-9 -58,-44 -104,-78 -112,-81 -271,-234 -357,-341 -76,-96 -201,-281 -243,-359 l -26,-50 -93,-6 c -51,-4 -95,-5 -97,-2 -3,3 21,58 52,122 58,118 150,266 234,378 61,80 230,253 318,326 87,71 225,168 240,169 6,0 30,-32 54,-72 z m 2608,20 c 31,-24 59,-45 62,-48 3,-3 31,-25 63,-49 31,-24 57,-50 57,-58 0,-8 5,-11 12,-7 7,5 9,2 5,-8 -3,-9 -3,-19 1,-22 9,-9 10,-46 1,-46 -14,0 -23,24 -20,49 2,20 -1,23 -18,18 -12,-3 -21,-1 -21,3 0,5 8,10 17,12 16,3 16,4 0,18 -10,8 -24,21 -32,28 -9,8 -15,9 -15,3 0,-6 -7,-11 -15,-11 -8,0 -15,-5 -15,-10 0,-7 6,-7 19,-1 13,8 23,6 37,-5 18,-14 17,-15 -9,-9 -20,4 -28,2 -26,-7 4,-31 -2,-49 -13,-42 -7,5 -8,3 -3,-6 4,-7 2,-16 -6,-21 -9,-6 -10,-9 -2,-9 7,0 17,8 22,18 10,16 11,15 12,-3 1,-11 1,-24 0,-28 -1,-5 3,-6 9,-2 5,3 10,1 10,-6 0,-7 3,-9 6,-6 4,4 1,13 -6,22 -7,8 -9,15 -5,15 4,0 2,7 -5,15 -11,13 -11,18 0,28 10,9 11,9 6,0 -5,-9 0,-13 13,-13 12,0 21,-4 21,-10 0,-5 -6,-7 -13,-4 -8,3 -14,-2 -14,-11 0,-14 10,-19 30,-16 10,2 -10,-36 -24,-45 -6,-3 -15,-1 -19,6 -5,9 -9,9 -14,1 -4,-6 -2,-11 4,-11 6,0 8,-4 5,-10 -3,-5 -1,-10 5,-10 6,0 8,-5 5,-10 -4,-6 -2,-9 3,-8 10,3 12,-1 12,-23 0,-6 -26,13 -58,42 -32,30 -104,87 -159,128 l -101,73 46,74 c 27,41 52,71 60,69 6,-3 38,-24 70,-47 z m -850,-24 c 4,-25 -22,-49 -43,-40 -22,8 -29,34 -14,52 17,21 53,14 57,-12 z m -1026,-1 c 21,-23 42,-97 35,-117 -4,-9 -15,-16 -26,-16 -21,0 -42,27 -62,83 -13,36 -12,40 6,53 24,18 29,18 47,-3 z m 1236,-31 c 4,-28 -24,-41 -44,-20 -20,20 -7,50 20,46 13,-2 22,-12 24,-26 z M 4485,6940 c 0,-19 -6,-26 -24,-28 -29,-4 -43,15 -30,41 15,28 54,19 54,-13 z m -251,-63 c 13,-21 -15,-53 -38,-44 -19,8 -21,38 -4,55 15,15 28,11 42,-11 z m 1837,-17 c 19,-5 48,-23 64,-40 23,-24 30,-41 33,-88 4,-63 -16,-128 -43,-138 -22,-9 -19,-19 26,-85 22,-33 39,-62 37,-64 -1,-2 -27,-5 -56,-6 l -52,-4 -38,50 c -30,40 -44,50 -67,50 -30,0 -30,-1 -33,-62 l -3,-63 h -48 -48 l -6,137 c -10,200 -9,291 4,299 9,5 61,12 179,23 8,0 31,-4 51,-9 z m 759,-21 c -7,-11 -9,-23 -6,-26 3,-4 1,-12 -5,-19 -7,-8 -7,-14 1,-19 11,-7 4,-25 -10,-25 -4,0 -11,7 -14,16 -3,8 -2,13 2,10 5,-3 9,2 9,10 0,8 -5,13 -11,11 -9,-3 -12,-29 -7,-59 0,-4 9,-5 19,-1 13,5 15,3 5,-7 -12,-13 -44,-7 -42,7 4,21 -2,43 -15,56 -13,13 -12,17 10,37 22,22 36,16 14,-6 -6,-6 -3,-10 9,-11 11,-1 23,9 30,23 6,13 13,24 16,24 3,0 1,-9 -5,-21 z m 63,-9 c -3,-12 -8,-19 -11,-16 -5,6 5,36 12,36 2,0 2,-9 -1,-20 z M 5680,6673 c 0,-132 -4,-165 -19,-198 -44,-99 -171,-144 -261,-94 -61,35 -71,67 -71,246 0,86 2,157 3,158 2,1 22,5 46,8 l 42,5 1,-101 c 0,-56 4,-124 8,-151 13,-78 63,-99 120,-50 l 31,26 v 144 c 0,141 1,145 23,154 12,5 34,9 50,9 l 27,1 z m 804,85 c 21,-59 -66,-95 -100,-43 -15,23 -15,27 0,51 14,21 24,25 54,22 30,-2 38,-8 46,-30 z m -1365,-41 c 139,-92 89,-336 -80,-392 -94,-32 -181,-5 -229,71 -90,143 -7,322 163,353 54,9 98,-1 146,-32 z m -473,-143 -76,-125 v -94 -95 h -50 -50 v 91 91 l -43,62 c -93,130 -118,168 -115,171 2,1 26,5 53,9 l 50,6 49,-65 c 56,-74 60,-74 108,11 16,29 34,57 41,62 15,13 101,20 105,9 2,-4 -30,-64 -72,-133 z m 2183,125 c -7,-4 -17,-5 -22,-2 -5,3 -3,9 4,14 7,4 17,5 22,2 5,-3 3,-9 -4,-14 z m -2758,-89 c 27,-15 25,-65 -3,-84 -27,-17 -272,-42 -311,-32 -47,11 -44,76 4,91 23,7 215,32 262,34 16,1 37,-4 48,-9 z m 2707,-52 c 17,-17 15,-53 -5,-70 -18,-16 -234,-48 -320,-48 -50,0 -69,23 -53,65 12,32 12,32 150,49 148,18 213,19 228,4 z M 4078,6344 c 25,-17 28,-42 8,-69 -11,-16 -45,-23 -207,-42 -107,-12 -235,-25 -286,-29 l -92,-7 -7,28 c -16,64 16,75 306,109 265,30 251,29 278,10 z m 4018,-89 c 14,-21 14,-30 4,-54 -6,-16 -19,-32 -27,-35 -20,-8 -579,-76 -624,-76 -19,0 -40,5 -47,12 -17,17 -15,52 6,77 15,19 50,25 322,60 168,22 315,40 327,40 14,1 29,-9 39,-24 z m -1084,-28 c 71,-35 130,-100 159,-176 20,-54 21,-76 26,-541 3,-304 2,-511 -5,-555 -15,-106 -46,-177 -105,-241 -88,-97 -159,-129 -316,-145 -221,-23 -371,48 -430,205 -20,55 -21,70 -21,596 v 539 l 24,66 c 40,111 94,173 196,225 88,45 165,60 295,57 108,-2 126,-6 177,-30 z m -4517,-27 c 3,-5 1,-10 -4,-10 -6,0 -11,5 -11,10 0,6 2,10 4,10 3,0 8,-4 11,-10 z m -82,-35 c -3,-9 -8,-14 -10,-11 -3,3 -2,9 2,15 9,16 15,13 8,-4 z m 3471,-54 c 120,-59 187,-164 194,-307 l 4,-80 -113,-12 c -63,-7 -131,-15 -151,-18 l -38,-6 v 47 c 0,83 -57,117 -164,97 -68,-13 -100,-33 -133,-82 l -23,-33 v -459 c 0,-296 4,-466 10,-479 23,-42 62,-51 178,-39 159,16 143,-4 140,178 l -3,157 -70,-3 c -38,-2 -78,-6 -87,-8 -17,-5 -18,6 -18,138 v 143 l 278,33 c 152,18 285,32 295,32 15,0 17,-13 17,-135 v -134 l -60,-7 -60,-7 v -323 c 0,-235 -3,-324 -11,-324 -7,0 -140,-14 -298,-31 -157,-17 -311,-29 -342,-26 -121,10 -206,74 -251,186 -22,55 -23,67 -26,491 -2,239 1,499 6,577 8,125 13,148 39,205 42,87 99,148 180,191 110,57 201,76 345,73 86,-3 105,-7 162,-35 z m -1722,-39 c -99,-73 -129,-102 -172,-160 -87,-118 -93,-142 -100,-412 -6,-212 -8,-241 -29,-292 -40,-104 -135,-210 -216,-244 -77,-32 -145,-2 -145,63 0,29 9,43 59,92 33,31 66,70 73,86 10,22 14,131 18,425 l 5,394 195,22 c 107,12 222,26 255,32 83,13 83,13 57,-6 z m 606,-82 c 64,-27 133,-101 158,-168 17,-43 19,-94 22,-577 2,-362 0,-551 -8,-595 -22,-124 -110,-242 -224,-298 -57,-29 -176,-51 -271,-52 -175,-1 -292,70 -347,210 -21,54 -22,62 -19,609 2,419 6,565 16,598 59,195 255,308 520,299 77,-3 113,-9 153,-26 z M 3310,5209 v -762 l 98,7 c 53,4 130,14 171,21 85,17 206,73 246,116 16,16 31,29 34,29 3,0 5,-89 4,-198 l -1,-197 -294,-32 c -161,-18 -390,-44 -508,-59 -404,-49 -678,-80 -689,-76 -6,2 -11,14 -11,26 0,22 3,23 88,22 192,-1 379,103 443,249 19,43 19,43 84,50 l 65,7 v 621 c 0,342 -5,640 -10,661 -5,22 -22,53 -39,69 -37,38 -42,38 -365,-2 -136,-18 -256,-29 -266,-26 -24,7 -39,45 -29,72 13,34 48,50 128,58 40,3 153,17 250,31 267,37 525,70 579,73 l 22,1 z m 4778,719 c 7,-7 12,-25 12,-40 0,-53 -23,-61 -258,-90 -316,-39 -342,-37 -342,22 0,49 24,59 206,80 93,11 192,24 219,29 75,13 149,13 163,-1 z M 2823,5681 c 35,-14 44,-47 20,-79 -24,-32 -38,-36 -244,-61 -218,-28 -234,-27 -255,4 -20,31 -12,72 19,86 22,10 342,56 404,58 17,1 43,-3 56,-8 z m 5216,-123 c -27,-54 -122,-153 -175,-184 -23,-13 -63,-31 -90,-38 -63,-19 -204,-26 -204,-12 0,6 16,36 36,66 101,152 198,208 367,209 l 87,1 z m -185,-496 c 94,-42 231,-171 208,-194 -5,-5 -58,-10 -118,-11 -127,-2 -190,15 -256,72 -42,36 -118,127 -118,141 0,14 39,18 140,16 73,-2 106,-7 144,-24 z M 2547,4940 c 74,-33 126,-76 177,-143 27,-36 48,-69 47,-73 -2,-15 -52,-24 -126,-25 -95,-1 -173,29 -241,92 -53,51 -110,142 -99,159 3,6 49,10 103,10 74,0 107,-5 139,-20 z m 5535,-187 c 41,-37 6,-103 -54,-103 -18,0 -165,-16 -326,-36 -280,-34 -294,-35 -313,-18 -31,28 -21,82 19,103 10,5 88,17 173,26 84,8 208,22 274,29 169,19 205,19 227,-1 z m 6,-195 c 16,-16 15,-73 -1,-86 -7,-6 -66,-18 -132,-27 -106,-14 -120,-14 -142,0 -27,18 -31,66 -7,86 34,28 260,49 282,27 z m -10,-194 c 28,-19 29,-65 1,-90 -22,-20 3,-16 -654,-88 -181,-20 -421,-46 -533,-58 -211,-23 -233,-22 -240,16 -8,39 8,65 46,76 39,11 264,38 797,95 286,31 538,60 555,64 3,0 16,-6 28,-15 z m -1644,-105 26,-20 v -314 c 0,-311 0,-314 -22,-339 -27,-30 -62,-35 -413,-66 -126,-11 -473,-45 -770,-75 -1176,-119 -1133,-117 -1155,-59 -6,14 -10,152 -10,320 v 296 l 28,28 c 25,24 39,29 108,35 114,9 450,42 664,65 102,11 264,27 360,35 258,22 694,65 1146,114 6,0 23,-8 38,-20 z M 3878,3994 c 12,-8 22,-25 22,-38 0,-42 -27,-53 -165,-66 -128,-12 -129,-12 -147,10 -23,29 -23,36 6,64 19,20 37,25 112,30 49,4 98,8 109,10 11,2 25,4 30,5 6,0 21,-6 33,-15 z m 2982,-84 c 26,-26 25,-36 -3,-64 -18,-18 -39,-24 -95,-29 -100,-10 -135,12 -110,68 12,27 27,33 98,38 25,2 55,4 68,5 12,1 31,-7 42,-18 z m 793,-32 c 4,-9 6,-7 6,3 1,11 10,17 26,17 16,0 22,-5 18,-12 -4,-6 0,-6 9,2 13,10 18,9 29,-5 12,-15 12,-16 -1,-8 -12,6 -13,5 -2,-6 9,-10 12,-123 12,-496 0,-266 -2,-483 -5,-483 -13,0 -95,46 -170,94 -152,99 -255,227 -290,361 -30,118 -14,178 74,276 l 50,54 1,-70 c 0,-106 16,-181 53,-259 32,-68 109,-176 125,-176 4,0 8,163 10,362 2,199 6,366 8,370 7,10 41,-8 47,-24 z m -608,-48 c -3,-5 -11,-10 -16,-10 -6,0 -7,5 -4,10 3,6 11,10 16,10 6,0 7,-4 4,-10 z m 35,-25 c 0,-8 5,-15 11,-15 5,0 7,5 4,10 -3,6 3,10 15,10 11,0 23,-7 26,-15 4,-8 10,-15 16,-15 5,0 6,5 3,10 -3,6 1,10 9,10 9,0 16,-6 16,-12 0,-9 4,-8 10,2 22,33 8,-6 -21,-60 -84,-158 -322,-425 -507,-567 -124,-96 -316,-217 -427,-269 -242,-113 -599,-204 -845,-216 l -65,-3 v 90 90 l 70,8 c 469,51 843,198 1165,455 149,120 340,322 427,454 17,25 31,35 44,33 10,-2 19,0 19,6 0,5 7,9 15,9 8,0 15,-7 15,-15 z m -4290,-47 c 0,-5 4,-7 9,-4 5,4 11,1 13,-6 2,-6 10,-8 17,-4 9,6 8,11 -6,21 -17,13 -16,14 5,8 12,-3 26,-10 30,-17 4,-6 9,-141 12,-301 l 5,-290 46,62 c 85,113 116,205 126,365 l 6,96 22,-26 c 12,-15 41,-56 64,-91 33,-52 41,-73 41,-112 0,-196 -132,-381 -368,-515 -42,-24 -82,-44 -89,-44 -10,0 -13,78 -13,374 0,407 5,500 26,492 7,-3 16,-1 19,4 7,11 35,2 35,-12 z m 5234,11 c -2,-4 0,-10 6,-14 6,-4 7,-11 4,-17 -4,-6 -2,-8 4,-4 6,3 15,-2 21,-11 8,-15 10,-15 11,-2 0,8 -6,21 -12,28 -11,10 -8,10 15,0 l 27,-12 2,-281 c 2,-155 2,-307 0,-339 -3,-89 -43,-152 -119,-191 -58,-29 -57,-35 -49,197 3,116 6,311 7,431 0,128 4,214 9,206 5,-8 6,-18 3,-23 -3,-5 0,-7 8,-5 8,3 13,13 11,23 -2,10 1,14 7,10 6,-3 11,-15 11,-27 0,-17 2,-18 15,-8 14,11 14,15 1,29 -14,15 -13,17 4,17 10,0 17,-4 14,-7 z m -4156,-55 c 43,-30 16,-94 -40,-94 -27,0 -68,30 -68,50 0,18 48,60 67,60 10,0 29,-7 41,-16 z M 2522,3272 c 2,-199 0,-362 -5,-362 -17,0 -83,39 -103,62 -40,43 -55,88 -61,176 -7,101 6,469 16,456 3,-5 18,-17 33,-27 25,-15 28,-16 36,-1 7,12 19,15 41,12 25,-4 31,-1 30,11 -2,24 1,45 5,40 3,-2 6,-167 8,-367 z m -92,308 c 0,-6 -9,-5 -20,2 -11,7 -20,16 -20,21 0,4 9,3 20,-3 11,-6 20,-15 20,-20 z m 1314,-149 c 4,-5 -3,-7 -14,-4 -23,6 -26,13 -6,13 8,0 17,-4 20,-9 z m 26,-45 c 0,-3 -4,-8 -10,-11 -5,-3 -10,-1 -10,4 0,6 5,11 10,11 6,0 10,-2 10,-4 z m 2525,-26 c 0,-18 -6,-26 -23,-28 -13,-2 -25,3 -28,12 -10,26 4,48 28,44 17,-2 23,-10 23,-28 z m -2689,4 c -19,-13 -11,-23 17,-19 9,2 17,-1 17,-6 0,-5 5,-9 11,-9 6,0 8,7 5,17 -4,10 -4,14 0,11 3,-4 13,-1 21,7 8,8 19,15 25,15 6,0 1,-8 -11,-17 -12,-10 -23,-28 -23,-39 -1,-13 -7,-20 -15,-17 -7,3 -13,0 -13,-7 0,-6 -5,-8 -11,-4 -8,5 -8,8 0,14 9,5 8,10 -4,20 -12,10 -15,10 -15,-1 0,-8 -5,-5 -14,6 -16,23 -11,42 11,42 14,0 14,-2 -1,-13 z m 117,-21 c -3,-7 -6,-13 -8,-13 -2,0 -5,6 -8,13 -3,8 1,14 8,14 7,0 11,-6 8,-14 z m 52,-3 c -3,-5 7,-18 22,-29 27,-20 27,-20 6,-21 -13,0 -23,5 -23,11 0,6 -7,9 -15,6 -8,-4 -17,-2 -20,3 -4,6 -1,10 4,10 6,0 11,5 11,11 0,5 -4,7 -10,4 -5,-3 -10,0 -10,8 0,10 7,13 20,10 11,-3 18,-9 15,-13 z m 84,-10 c 17,0 13,-18 -8,-37 -11,-9 -18,-20 -15,-25 8,-13 35,-9 33,5 -6,44 8,47 48,11 15,-14 22,-22 14,-18 -9,5 -12,3 -7,-5 4,-6 11,-9 16,-6 4,2 18,-4 31,-14 13,-10 39,-26 57,-35 l 33,-17 -27,-48 c -15,-26 -37,-60 -50,-76 -21,-27 -25,-28 -48,-16 -48,26 -191,147 -194,165 -2,11 0,16 6,12 11,-7 42,19 42,35 0,5 -5,9 -11,9 -5,0 -8,-4 -4,-9 3,-5 1,-12 -4,-15 -10,-7 -23,33 -15,46 3,5 18,-1 34,-12 28,-20 28,-20 33,0 3,11 1,22 -4,26 -5,3 -14,14 -20,25 -10,19 -9,20 12,9 20,-11 21,-10 15,6 -6,18 -5,18 8,2 7,-10 18,-18 25,-18 z m -138,-15 c 5,4 9,-1 9,-9 0,-8 -4,-18 -10,-21 -5,-3 -10,1 -10,10 0,21 -16,11 -23,-14 -6,-24 17,-48 29,-30 4,8 3,9 -4,5 -7,-4 -12,-3 -12,2 0,12 38,23 45,12 3,-4 -1,-19 -8,-33 l -13,-25 -32,27 c -30,27 -31,29 -14,52 9,13 16,25 14,27 -1,1 -2,8 -2,15 0,6 5,4 11,-6 6,-9 14,-15 20,-12 z m 2334,-35 c 0,-18 -6,-26 -23,-28 -13,-2 -25,3 -28,12 -10,26 4,48 28,44 17,-2 23,-10 23,-28 z m -281,-30 c 35,-64 32,-95 -9,-95 -27,0 -32,5 -49,56 -21,60 -17,89 12,89 12,0 28,-18 46,-50 z m -269,-30 c 23,-45 25,-129 3,-143 -27,-18 -47,10 -60,82 -11,58 -10,64 7,77 27,20 32,18 50,-16 z m -2081,-19 c 17,-29 18,-40 8,-92 -43,-233 -266,-406 -598,-464 -143,-25 -145,-24 -67,43 80,69 177,171 255,268 60,73 95,105 193,171 33,22 80,57 104,77 53,44 78,43 105,-3 z m 3776,-47 c 139,-104 184,-145 277,-255 72,-85 208,-220 253,-252 25,-18 24,-18 -40,-12 -81,6 -217,38 -290,67 -214,85 -369,261 -378,427 -3,56 -1,69 18,89 11,12 26,22 33,22 7,0 64,-39 127,-86 z m -2682,67 c 21,-13 10,-46 -16,-49 -27,-4 -40,22 -22,43 14,17 20,18 38,6 z m 741,-5 c 7,-9 11,-42 9,-88 l -3,-73 h -30 -30 l -3,73 c -3,73 6,102 33,102 7,0 18,-6 24,-14 z m -242,-12 c 9,-24 -17,-125 -34,-131 -24,-9 -48,12 -46,39 1,14 6,43 13,66 9,35 15,42 36,42 13,0 27,-7 31,-16 z m -259,-21 c 4,-30 -31,-49 -52,-27 -19,19 -20,26 -4,42 19,19 53,10 56,-15 z m -419,-127 c 174,-88 460,-168 673,-188 l 128,-12 v -93 c 0,-83 -2,-93 -18,-93 -61,0 -255,25 -362,46 -220,45 -629,197 -616,229 8,21 96,155 101,155 3,0 45,-20 94,-44 z m -618,-124 c 9,-16 15,-19 20,-10 6,9 10,7 15,-6 11,-28 -48,-136 -105,-192 -61,-61 -159,-119 -240,-145 -69,-21 -284,-39 -266,-22 6,5 43,22 84,38 87,33 204,109 256,166 40,45 132,181 146,216 l 8,23 35,-23 c 19,-12 40,-32 47,-45 z m 3115,36 c 11,-37 87,-148 140,-207 58,-64 172,-142 252,-171 105,-38 104,-41 -8,-36 -241,9 -433,126 -501,306 l -18,49 41,30 c 23,17 50,31 61,31 10,0 15,5 12,10 -3,6 -2,10 4,10 5,0 13,-10 17,-22 z m -263,-273 c -3,-9 -8,-14 -10,-11 -3,3 -2,9 2,15 9,16 15,13 8,-4 z m -2667,-31 c -4,-12 33,-44 51,-44 4,0 1,5 -7,10 -8,5 -10,10 -3,10 12,0 12,17 -1,40 -7,12 -7,13 5,2 8,-7 15,-17 15,-22 1,-6 2,-16 3,-23 0,-7 10,-18 22,-25 19,-12 19,-11 9,8 -11,20 -10,21 9,11 27,-15 44,-14 35,2 -6,10 -4,10 7,0 16,-16 33,-17 23,-1 -4,7 -3,8 5,4 14,-9 5,-26 -14,-26 -8,0 -17,-4 -20,-10 -4,-6 7,-8 27,-5 27,4 29,4 8,-3 -31,-10 -298,-16 -288,-6 4,4 26,28 49,54 25,29 48,46 56,43 8,-3 12,-11 9,-19 z m 2707,-74 c -65,-6 -299,1 -268,7 11,2 27,7 35,10 18,7 28,9 54,11 16,2 17,4 5,19 -12,14 -10,14 14,-1 24,-16 31,-15 28,6 -1,8 20,5 37,-6 7,-4 18,-3 25,2 28,23 62,18 95,-12 l 33,-31 z m -242,27 c -10,-9 -11,-8 -5,6 3,10 9,15 12,12 3,-3 0,-11 -7,-18 z M 2694,2509 c 34,-40 33,-74 -3,-110 -48,-48 -111,-36 -137,26 -37,89 78,158 140,84 z m 5179,11 c 47,-37 43,-102 -8,-136 -37,-24 -99,-5 -121,37 -40,78 59,154 129,99 z m -2711,-72 c -19,-19 -14,-30 8,-18 16,8 24,6 41,-11 17,-17 23,-19 30,-8 10,16 -9,42 -24,32 -6,-3 -7,-1 -3,6 8,13 26,3 54,-29 11,-13 12,-12 7,8 -9,31 -1,28 25,-10 16,-24 20,-27 15,-10 -4,13 -2,22 4,22 6,0 11,-5 11,-11 0,-6 6,-9 13,-6 6,2 11,11 9,18 -3,11 -1,12 9,2 16,-16 33,-17 23,-2 -4,7 -1,10 7,7 24,-8 22,-78 -3,-128 -60,-117 -250,-120 -315,-4 -36,63 -29,145 12,142 13,-1 22,-5 19,-9 -2,-4 0,-10 6,-14 5,-3 10,2 10,12 0,13 2,15 9,5 6,-10 10,-10 21,3 7,8 15,15 18,15 3,0 1,-5 -6,-12 z m -482,-65 c 0,-4 -12,-24 -26,-44 -33,-48 -92,-87 -151,-99 -31,-7 -335,-10 -863,-8 -666,3 -822,6 -852,17 -38,14 -51,31 -24,31 21,0 74,48 92,81 l 15,29 h 904 c 498,0 905,-3 905,-7 z m 2915,-36 c 15,-24 41,-52 58,-62 l 31,-19 -34,-15 c -31,-14 -135,-16 -880,-16 h -845 l -40,22 c -42,22 -81,60 -110,106 l -17,27 h 904 905 z"
       id="path1" />
    <path
       d="m 6645,7030 c -3,-5 -1,-10 4,-10 6,0 11,5 11,10 0,6 -2,10 -4,10 -3,0 -8,-4 -11,-10 z"
       id="path2" />
    <path
       d="m 6669,7003 c -13,-15 -12,-15 9,-4 23,12 28,21 13,21 -5,0 -15,-7 -22,-17 z"
       id="path3" />
    <path
       d="m 6664,6941 c 0,-11 6,-17 16,-16 8,2 19,4 23,4 5,1 5,6 1,12 -4,8 -9,7 -15,-2 -7,-11 -9,-10 -9,4 0,9 -4,17 -8,17 -4,0 -8,-8 -8,-19 z"
       id="path4" />
    <path
       d="m 6680,6850 c 11,-7 11,-10 2,-10 -7,0 -10,-5 -7,-10 4,-6 12,-5 21,4 19,19 18,21 -8,23 -18,2 -20,0 -8,-7 z"
       id="path5" />
    <path
       d="m 5951,6749 c -15,-6 -21,-14 -17,-25 3,-9 6,-29 6,-46 v -30 l 56,4 c 33,3 60,11 65,19 13,20 11,63 -3,77 -14,14 -73,15 -107,1 z"
       id="path6" />
    <path
       d="m 4941,6633 c -33,-17 -48,-36 -62,-86 -17,-58 39,-127 103,-127 36,0 88,37 104,75 21,51 17,81 -13,115 -34,36 -85,45 -132,23 z"
       id="path7" />
    <path
       d="m 6684,5921 c -63,-39 -64,-44 -64,-514 0,-241 4,-436 9,-450 33,-86 152,-99 228,-25 l 33,32 v 459 459 l -29,29 c -26,25 -37,29 -88,29 -39,0 -68,-6 -89,-19 z"
       id="path8" />
    <path
       d="m 4455,5686 c -16,-7 -39,-23 -50,-36 -19,-21 -20,-38 -23,-491 l -3,-468 30,-33 c 26,-30 35,-33 83,-32 62,0 103,18 132,57 20,28 21,40 24,465 2,240 0,452 -3,471 -10,53 -48,81 -109,81 -28,-1 -64,-7 -81,-14 z"
       id="path9" />
    <path
       d="m 6180,4104 c -8,-1 -68,-8 -132,-15 l -118,-11 v -209 c 0,-192 1,-209 18,-209 25,0 229,19 280,25 l 42,6 v 55 56 l -37,-6 c -21,-3 -68,-8 -105,-11 -63,-6 -68,-5 -68,13 0,22 13,27 98,38 38,5 52,11 52,23 0,9 3,33 6,54 l 7,37 -59,-5 c -33,-4 -69,-8 -81,-11 -19,-4 -23,0 -23,20 0,26 9,29 143,42 l 67,7 v 53 54 l -37,-1 c -21,-1 -45,-3 -53,-5 z"
       id="path10" />
    <path
       d="m 5515,4038 c -163,-13 -145,15 -145,-223 v -205 h 44 c 69,0 77,6 70,52 -8,46 3,58 51,58 23,0 37,-9 60,-41 29,-40 30,-40 93,-38 34,1 65,5 67,9 2,4 -9,19 -25,35 -16,15 -34,40 -40,56 -11,25 -9,32 14,59 74,89 45,218 -56,239 -18,3 -78,3 -133,-1 z m 89,-114 c 22,-9 20,-51 -3,-64 -11,-5 -40,-10 -65,-10 -46,0 -46,0 -46,34 0,32 3,35 33,39 58,7 65,7 81,1 z"
       id="path11" />
    <path
       d="m 5010,3994 c -69,-8 -131,-15 -139,-16 -11,-2 -13,-42 -12,-213 1,-115 4,-211 5,-213 2,-2 70,4 151,13 81,8 152,15 156,15 5,0 9,25 9,55 v 54 l -67,-5 c -38,-3 -83,-7 -100,-9 -29,-3 -33,-1 -33,19 0,22 6,24 70,30 l 70,7 v 52 52 l -76,-3 c -75,-4 -76,-4 -72,19 3,22 10,25 73,32 146,16 135,11 135,72 0,64 19,59 -170,39 z"
       id="path12" />
    <path
       d="m 4573,3943 c -21,-4 -23,-10 -23,-77 v -73 l -52,-7 c -104,-12 -98,-16 -98,70 v 77 l -31,-7 c -17,-3 -42,-6 -55,-6 h -24 v -216 -216 l 23,6 c 12,3 37,6 55,6 h 32 v 74 73 l 46,7 c 26,3 60,6 75,6 h 29 v -70 c 0,-77 2,-79 79,-64 l 31,7 v 208 209 l -32,-1 c -18,-1 -43,-4 -55,-6 z"
       id="path13" />
    <path
       d="m 7610,3890 c 0,-5 5,-10 11,-10 5,0 7,5 4,10 -3,6 -8,10 -11,10 -2,0 -4,-4 -4,-10 z"
       id="path14" />
    <path
       d="m 8040,3711 c 0,-6 4,-13 10,-16 6,-3 7,1 4,9 -7,18 -14,21 -14,7 z"
       id="path15" />
    <path
       d="m 3890,3270 c -8,-5 -10,-10 -5,-10 6,0 1,-7 -9,-15 -15,-12 -16,-15 -5,-15 9,0 21,11 27,25 13,28 13,28 -8,15 z"
       id="path16" />
    <path
       d="m 3760,3210 c -13,-8 -12,-10 3,-10 9,0 17,5 17,10 0,12 -1,12 -20,0 z"
       id="path17" />
    <path
       d="m 3876,2664 c -4,-9 -4,-19 -1,-22 2,-3 7,3 11,12 4,9 4,19 1,22 -2,3 -7,-3 -11,-12 z"
       id="path18" />
    <path
       d="m 182,7900 c 0,-14 2,-19 5,-12 2,6 2,18 0,25 -3,6 -5,1 -5,-13 z"
       id="path19" />
    <path
       d="m 182,7800 c 0,-14 2,-19 5,-12 2,6 2,18 0,25 -3,6 -5,1 -5,-13 z"
       id="path20" />
    <path
       d="m 162,7598 c -2,-20 -42,-25 -42,-5 -1,7 -6,5 -14,-5 -7,-10 -18,-18 -25,-18 -7,0 -9,-9 -5,-25 6,-24 4,-25 -35,-25 -39,0 -41,-2 -41,-30 0,-30 0,-30 58,-30 31,0 64,5 72,10 10,7 11,10 2,10 -8,0 -10,8 -7,23 4,15 1,28 -9,36 -20,17 -21,31 -2,31 8,0 17,-8 19,-17 4,-17 5,-17 6,0 0,9 6,17 11,17 12,0 14,-37 2,-42 -4,-1 -5,-19 -1,-38 l 5,-35 8,45 c 4,25 6,61 3,80 -2,19 -5,27 -5,18 z"
       id="path21" />
    <path
       d="m 10170,7496 c 7,-7 13,-7 20,0 6,6 3,10 -10,10 -13,0 -16,-4 -10,-10 z"
       id="path22" />
    <path
       d="m 180,7295 c 0,-141 1,-145 44,-129 12,5 16,20 16,60 0,46 -3,54 -19,54 -32,0 -47,115 -16,122 13,2 12,6 -5,16 -20,12 -20,10 -20,-123 z"
       id="path23" />
    <path
       d="m 9823,7325 c 0,-38 2,-53 4,-32 2,20 2,52 0,70 -2,17 -4,1 -4,-38 z"
       id="path24" />
    <path
       d="m 10010,7280 c 0,-5 5,-10 10,-10 6,0 10,5 10,10 0,6 -4,10 -10,10 -5,0 -10,-4 -10,-10 z"
       id="path25" />
    <path
       d="m 280,7185 c 0,-8 9,-15 20,-15 11,0 20,7 20,15 0,8 -9,15 -20,15 -11,0 -20,-7 -20,-15 z"
       id="path26" />
    <path
       d="m 0,7009 v -141 l 28,5 c 15,2 53,2 84,-2 l 57,-7 3,41 c 2,22 2,86 0,143 l -3,102 H 84 0 Z"
       id="path27" />
    <path
       d="m 10175,7100 c -21,-23 -41,-26 -48,-7 -2,6 -7,-10 -11,-36 -4,-27 -5,-51 -2,-55 3,-3 6,4 6,16 0,20 5,22 60,22 h 60 v 40 c 0,35 -3,40 -23,40 -13,0 -32,-9 -42,-20 z"
       id="path28" />
    <path
       d="m 10223,6996 c 8,-21 -26,-49 -41,-34 -6,6 -15,8 -19,3 -5,-4 -2,-10 5,-12 17,-7 15,-23 -4,-23 -11,0 -14,-6 -9,-20 5,-15 2,-20 -14,-20 -15,0 -21,8 -24,33 -4,31 -4,31 -5,-5 -2,-37 -1,-38 32,-38 18,0 48,-3 65,-6 l 31,-6 v 71 c 0,45 -4,71 -11,71 -6,0 -9,-6 -6,-14 z"
       id="path29" />
    <path
       d="m 9796,6895 c -3,-8 -1,-15 4,-15 6,0 10,7 10,15 0,8 -2,15 -4,15 -2,0 -6,-7 -10,-15 z"
       id="path30" />
    <path
       d="m 477,6838 c -3,-13 -6,-74 -6,-136 l -1,-113 140,2 140,1 v 128 c 0,106 -3,129 -16,134 -9,4 -13,2 -8,-5 4,-8 1,-8 -14,0 -11,6 -49,10 -84,9 l -63,-1 55,-7 c 30,-4 47,-7 38,-8 -19,-2 -26,-32 -7,-32 5,0 7,-5 4,-11 -4,-6 -18,-1 -38,13 -71,52 -131,63 -140,26 z m 71,0 c 18,-18 14,-38 -7,-38 -12,0 -20,9 -23,25 -6,27 10,33 30,13 z m 189,-80 c -2,-13 -4,-3 -4,22 0,25 2,35 4,23 2,-13 2,-33 0,-45 z m -140,-20 c -3,-7 -5,-2 -5,12 0,14 2,19 5,13 2,-7 2,-19 0,-25 z m -42,-28 c 3,-5 1,-10 -4,-10 -6,0 -11,5 -11,10 0,6 2,10 4,10 3,0 8,-4 11,-10 z m 172,-22 c -3,-7 -5,-2 -5,12 0,14 2,19 5,13 2,-7 2,-19 0,-25 z m -220,-35 c -3,-10 -5,-2 -5,17 0,19 2,27 5,18 2,-10 2,-26 0,-35 z m -20,5 c -3,-8 -6,-5 -6,6 -1,11 2,17 5,13 3,-3 4,-12 1,-19 z m 240,-40 c -3,-8 -6,-5 -6,6 -1,11 2,17 5,13 3,-3 4,-12 1,-19 z m -131,0 c -10,-6 -22,-6 -26,-2 -5,5 3,10 18,11 22,1 24,0 8,-9 z"
       id="path31" />
    <path
       d="m 0,6721 v -129 l 81,-4 c 44,-2 83,-1 85,1 2,2 4,62 4,133 v 129 l -27,-3 c -20,-2 -27,-8 -25,-20 2,-12 -4,-18 -18,-18 -22,0 -28,26 -7,33 6,2 -12,5 -40,5 l -53,2 z"
       id="path32" />
    <path
       d="m 9223,6720 c 0,-25 2,-35 4,-22 2,12 2,32 0,45 -2,12 -4,2 -4,-23 z"
       id="path33" />
    <path
       d="m 9963,6718 c 2,-18 2,-25 0,-15 -2,9 -13,17 -24,17 -14,0 -19,-7 -19,-27 0,-16 -3,-39 -7,-53 -5,-21 -4,-23 8,-14 15,12 79,7 79,-6 0,-11 -55,-18 -111,-12 l -49,5 -1,41 c -2,83 -17,94 -18,14 l -1,-78 123,1 c 67,0 116,3 110,6 -7,2 -13,13 -13,23 0,10 -9,21 -19,25 -22,7 -18,35 5,35 8,0 14,10 14,25 0,16 -4,23 -14,19 -7,-3 -16,2 -19,10 -4,9 -16,16 -27,16 -18,0 -20,-5 -17,-32 z"
       id="path34" />
    <path
       d="m 10086,6732 c -4,-13 -5,-26 -2,-29 10,-11 18,4 14,29 l -4,23 z"
       id="path35" />
    <path
       d="m 1063,6680 c 0,-25 2,-35 4,-22 2,12 2,32 0,45 -2,12 -4,2 -4,-23 z"
       id="path36" />
    <path
       d="m 9883,6665 c -6,-14 -9,-25 -6,-25 9,0 33,29 33,39 0,19 -15,11 -27,-14 z"
       id="path37" />
    <path
       d="m 10087,6615 c -4,-8 -2,-17 3,-20 6,-4 10,3 10,14 0,25 -6,27 -13,6 z"
       id="path38" />
    <path
       d="m 193,6573 c -10,-3 -13,-40 -13,-134 0,-96 3,-129 13,-130 6,-1 35,-1 62,-1 28,1 85,1 128,1 l 77,1 -2,133 c -1,112 -2,122 -8,62 l -6,-70 -2,73 -2,72 -117,-1 c -65,0 -124,-3 -130,-6 z"
       id="path39" />
    <path
       d="m 10112,6449 c 3,-76 9,-134 15,-137 6,-4 34,-5 62,-4 l 51,4 v 134 134 l -47,-1 c -43,-1 -45,-2 -18,-9 30,-8 30,-8 -7,-9 -21,0 -38,4 -38,9 0,6 -5,10 -11,10 -8,0 -10,-37 -7,-131 z"
       id="path40" />
    <path
       d="m 788,6563 c 12,-2 30,-2 40,0 9,3 -1,5 -23,4 -22,0 -30,-2 -17,-4 z"
       id="path41" />
    <path
       d="m 1018,6563 c 7,-3 16,-2 19,1 4,3 -2,6 -13,5 -11,0 -14,-3 -6,-6 z"
       id="path42" />
    <path
       d="m 9802,6523 -2,-43 h -60 -60 v -40 -40 h -40 -40 v -45 -45 l 70,-1 c 39,-1 85,-2 103,-3 l 32,-1 3,97 c 2,54 1,112 -1,130 -3,29 -4,28 -5,-9 z"
       id="path43" />
    <path
       d="m 9523,6460 c 0,-23 3,-28 9,-16 5,9 5,23 0,32 -6,12 -9,7 -9,-16 z"
       id="path44" />
    <path
       d="m 950,6465 c 0,-7 30,-13 34,-7 3,4 -4,9 -15,9 -10,1 -19,0 -19,-2 z"
       id="path45" />
    <path
       d="m 760,6411 c 0,-26 4,-40 10,-36 6,4 9,-6 8,-27 -3,-29 0,-33 22,-36 24,-2 24,-2 5,10 -15,10 -21,26 -23,63 -4,64 -22,85 -22,26 z"
       id="path46" />
    <path
       d="m 9540,6398 c 0,-2 7,-21 16,-43 15,-39 15,-39 9,-6 -3,18 -5,37 -5,42 0,5 -4,9 -10,9 -5,0 -10,-1 -10,-2 z"
       id="path47" />
    <path
       d="m 1023,6350 c -6,-17 -8,-28 -3,-25 5,3 10,0 12,-6 2,-7 4,5 5,25 1,20 0,36 -1,36 -1,0 -7,-14 -13,-30 z"
       id="path48" />
    <path
       d="m 0,6160 v -141 l 88,3 c 62,2 87,7 86,16 -1,6 -2,68 -2,137 l -2,125 H 85 0 Z"
       id="path49" />
    <path
       d="m 470,6160 v -140 h 140 140 v 140 140 H 610 470 Z m 267,63 c -3,-10 -5,-4 -5,12 0,17 2,24 5,18 2,-7 2,-21 0,-30 z"
       id="path50" />
    <path
       d="m 1065,6288 c -3,-7 -4,-69 -2,-138 l 2,-125 45,5 c 25,2 60,4 78,5 32,0 33,1 27,30 -4,17 -9,56 -12,88 -4,53 -3,57 16,57 23,0 29,16 9,23 -7,2 -10,7 -7,11 3,3 14,4 23,0 17,-7 23,-44 6,-44 -5,0 -10,-18 -10,-40 0,-22 5,-40 10,-40 14,0 12,-78 -2,-82 -7,-3 -6,-7 5,-11 15,-6 17,6 17,133 v 140 h -100 c -71,0 -102,-4 -105,-12 z"
       id="path51" />
    <path
       d="m 9365,6290 c -8,-13 5,-13 25,0 13,8 13,10 -2,10 -9,0 -20,-4 -23,-10 z"
       id="path52" />
    <path
       d="m 9827,6293 c -4,-3 -7,-66 -7,-140 v -133 h 145 145 v 68 c 0,40 -5,73 -12,80 -7,7 -8,12 -2,12 6,0 12,27 13,60 l 2,60 h -139 c -76,0 -142,-3 -145,-7 z"
       id="path53" />
    <path
       d="m 9280,6260 c 0,-16 -7,-20 -30,-20 h -31 l 8,-77 c 4,-43 8,-90 8,-105 0,-16 5,-28 11,-28 8,0 10,20 6,65 l -5,65 44,1 c 24,1 50,1 57,0 6,-1 12,7 12,19 0,13 -7,20 -20,20 -17,0 -20,7 -20,40 0,33 -3,40 -20,40 -13,0 -20,-7 -20,-20 z"
       id="path54" />
    <path
       d="m 9390,6260 c 0,-5 7,-10 15,-10 20,0 19,-16 -1,-24 -15,-6 -15,-8 1,-26 10,-11 15,-23 11,-27 -4,-4 -12,-1 -17,7 -9,12 -9,11 -4,-5 4,-11 9,-26 12,-32 3,-7 0,-13 -6,-13 -6,0 -11,-7 -11,-15 0,-8 -7,-15 -15,-15 -8,0 -15,-4 -15,-10 0,-5 7,-10 15,-10 8,0 15,-4 15,-10 0,-5 -7,-10 -15,-10 -8,0 -15,5 -15,10 0,6 -18,10 -40,10 -36,0 -40,-3 -40,-24 0,-20 7,-25 37,-31 21,-4 39,-3 40,2 2,5 37,8 78,7 41,-2 75,-2 75,-1 0,1 3,49 5,107 4,94 3,105 -10,63 -3,-9 -13,-9 -36,-3 -35,10 -52,4 -30,-10 12,-7 12,-10 0,-23 -13,-13 -15,-10 -16,20 -1,22 4,36 13,40 12,5 11,9 -5,24 -22,21 -41,25 -41,9 z m 110,-126 c 0,-22 -3,-24 -22,-19 -47,15 -49,45 -2,45 19,0 24,-5 24,-26 z"
       id="path55" />
    <path
       d="m 177,5983 c -2,-16 -4,-77 -3,-138 l 1,-110 85,-3 c 47,-1 112,1 145,5 l 60,8 v 130 130 l -141,3 -141,3 z"
       id="path56" />
    <path
       d="m 778,6003 c -16,-4 -18,-19 -18,-134 v -129 h 145 145 v 135 135 l -127,-1 c -71,-1 -136,-3 -145,-6 z m 12,-23 c 0,-5 -4,-10 -10,-10 -5,0 -10,5 -10,10 0,6 5,10 10,10 6,0 10,-4 10,-10 z"
       id="path57" />
    <path
       d="m 9533,5993 c -3,-8 -6,-67 -7,-131 l -1,-117 143,-3 142,-3 v 136 137 l -136,-3 c -103,-2 -137,-6 -141,-16 z"
       id="path58" />
    <path
       d="m 10110,5876 v -133 l 38,-7 c 20,-3 49,-6 65,-6 h 27 v 140 140 h -65 -65 z"
       id="path59" />
    <path
       d="m 9185,5874 c 6,-114 6,-126 -9,-121 -9,4 -16,2 -16,-3 0,-18 39,-10 50,10 6,11 10,68 9,130 -1,103 -2,110 -21,110 -20,0 -20,-4 -13,-126 z"
       id="path60" />
    <path
       d="m 9162,5945 c 0,-16 2,-22 5,-12 2,9 2,23 0,30 -3,6 -5,-1 -5,-18 z"
       id="path61" />
    <path
       d="m 9163,5835 c 0,-22 2,-30 4,-17 2,12 2,30 0,40 -3,9 -5,-1 -4,-23 z"
       id="path62" />
    <path
       d="m 0,5590 v -141 l 88,3 87,3 3,138 3,137 H 90 0 Z"
       id="path63" />
    <path
       d="m 468,5593 -3,-138 -148,-3 -147,-3 2,-27 c 1,-15 1,-78 0,-139 l -2,-113 H 85 0 v -580 l 1,-580 77,-1 c 42,-1 80,-1 85,0 4,0 7,-58 7,-130 v -132 l -85,5 -85,6 V 1879 0 h 5120 5120 v 1880 1880 h -62 -63 l -3,119 c -2,65 0,121 5,124 4,3 7,-20 6,-51 -1,-32 1,-85 4,-119 l 6,-63 h 53 54 v 114 115 l -32,4 -33,4 33,1 32,2 v 300 300 h -59 c -71,0 -71,-1 -71,153 v 107 h 65 65 v 150 150 h -65 -65 v 280 280 h -150 -150 l 1,-282 1,-283 -138,-3 c -95,-2 -141,-6 -146,-15 -10,-15 -10,-238 0,-254 5,-8 49,-11 147,-10 l 140,2 2,133 c 1,74 4,136 7,139 3,4 67,6 141,7 l 135,1 v -137 -138 l -42,-2 c -50,-2 -144,-5 -205,-7 l -43,-1 v -139 -140 l -137,-3 c -76,-2 -141,-2 -145,0 -5,2 -8,63 -8,136 v 133 l -94,7 c -52,3 -120,3 -150,0 l -55,-7 -3,-136 -3,-136 -27,-3 -28,-3 v -145 -144 h 30 c 25,0 30,-4 30,-24 0,-31 -20,-86 -31,-86 -5,0 -10,-15 -11,-32 -1,-28 -2,-27 -8,12 -5,35 -7,21 -8,-59 l -2,-103 30,4 30,5 v -139 -138 h -30 -30 v -140 -140 h 30 30 v -145 -145 h -30 -30 v -150 -150 h 25 25 v -136 -136 l -25,4 -25,5 v -148 c 0,-145 0,-148 23,-151 18,-2 22,-10 24,-40 1,-21 -2,-38 -7,-38 -6,0 -10,-29 -10,-65 0,-89 -18,-83 -23,8 -2,55 -3,45 -5,-40 l -2,-113 h 24 c 14,0 28,-5 32,-12 4,-6 3,-8 -3,-5 -6,4 -10,-5 -11,-21 -3,-88 -16,-202 -23,-202 -4,0 -10,33 -12,73 -3,68 -8,-155 -11,-523 l -1,-165 -629,-5 c -491,-4 -630,-8 -634,-17 -2,-7 -17,-13 -33,-13 -16,0 -29,-5 -29,-11 0,-5 -4,-8 -9,-4 -5,3 -12,1 -16,-5 -3,-5 -16,-10 -28,-9 -12,0 -16,3 -9,6 6,2 12,16 12,29 v 24 h -160 -160 v -34 c 0,-43 -11,-46 -108,-27 -46,9 -68,17 -60,22 9,6 5,9 -13,9 -14,0 -34,-9 -44,-20 -10,-12 -25,-18 -32,-16 -7,3 -14,-2 -15,-12 0,-9 -4,3 -7,28 l -6,45 -160,3 c -155,2 -161,2 -162,-18 -1,-11 4,-20 13,-20 8,0 14,-10 14,-24 0,-22 -4,-25 -36,-23 -19,2 -38,8 -42,14 -12,19 -89,26 -89,8 0,-10 5,-11 18,-4 14,7 17,6 13,-4 -3,-8 -10,-14 -17,-14 -7,-1 -38,-4 -69,-7 l -58,-6 v 50 50 h -134 -133 l -10,-62 c -7,-42 -11,-52 -12,-30 -1,34 -26,46 -37,17 -5,-11 -11,-12 -24,-5 -11,6 -35,7 -55,4 -34,-5 -36,-4 -35,18 5,61 12,58 -135,58 h -135 l -1,-82 c 0,-46 -3,-76 -6,-68 -13,33 -83,57 -83,29 0,-7 -25,-9 -75,-6 -60,4 -75,2 -75,-9 0,-8 -4,-14 -10,-14 -5,0 -10,6 -10,13 0,8 -4,7 -10,-3 -7,-10 -10,9 -10,63 v 78 l -152,-3 c -145,-3 -153,-4 -154,-23 -3,-55 -5,-65 -11,-64 -5,1 -45,1 -90,0 -70,-1 -83,-4 -83,-17 0,-13 -7,-15 -31,-10 -18,3 -38,1 -45,-5 -12,-9 -14,-2 -14,39 0,85 6,82 -155,82 -132,0 -144,-2 -150,-19 -3,-10 -5,-23 -4,-27 3,-21 -4,-87 -8,-69 -2,11 -6,30 -9,42 -2,14 -12,23 -22,23 -10,0 -24,6 -30,12 -17,17 -34,-8 -26,-37 4,-16 3,-17 -5,-5 -6,8 -8,23 -5,33 6,21 -11,23 -19,2 -6,-15 -67,-17 -67,-2 0,15 -17,6 -28,-15 -11,-21 -11,-21 -6,7 4,23 3,26 -5,15 -8,-12 -11,-12 -11,-1 0,7 -6,11 -15,7 -10,-4 -15,1 -15,14 0,19 -7,20 -150,20 h -150 l -1,-62 c -1,-35 -4,-50 -6,-35 -4,27 -7,29 -44,25 -21,-2 -39,0 -39,4 0,5 -19,8 -42,9 -37,1 -39,2 -18,9 21,7 19,8 -17,9 -30,1 -46,-4 -55,-17 -7,-10 -23,-21 -35,-24 -21,-6 -23,-3 -23,38 v 44 h -150 c -115,0 -150,-3 -149,-12 4,-34 -2,-78 -11,-78 -5,0 -10,7 -10,16 0,14 -8,15 -48,9 -55,-8 -62,-11 -62,-31 0,-18 -19,-19 -26,-1 -3,8 -11,14 -19,14 -8,0 -12,-4 -10,-8 8,-12 -27,-20 -40,-9 -9,8 -15,8 -20,0 -15,-24 -25,-6 -25,45 v 55 l -197,-2 c -158,-2 -197,-6 -195,-16 1,-8 -2,-11 -8,-7 -6,3 -8,11 -5,16 7,11 -51,11 -117,0 -28,-5 -48,-4 -48,1 0,6 -87,7 -217,3 -276,-7 -235,-7 -473,-1 -113,4 -331,6 -485,6 h -280 v 142 c 0,446 -8,1330 -12,1316 -4,-14 -15,-18 -56,-18 -29,0 -63,3 -77,7 l -25,7 30,7 c 29,6 29,7 4,8 -22,1 -26,5 -21,26 2,14 0,25 -6,25 -5,0 -13,16 -17,36 -7,41 -21,35 -28,-11 -2,-16 -5,14 -6,68 l -1,97 h 105 105 v 153 152 h -32 c -18,1 -66,2 -105,3 l -73,2 v 140 140 l 98,1 c 53,1 100,1 105,0 4,0 7,64 7,144 v 145 h -105 -105 l -2,93 c -1,50 -2,107 -3,125 -1,53 3,55 114,50 l 101,-5 v 146 146 l -110,-3 -110,-3 V 4159 4020 H 905 760 v 140 139 l 148,3 147,3 2,145 1,145 h 106 106 v 143 142 h -104 c -124,0 -116,12 -116,-168 v -122 l -97,5 c -54,2 -119,5 -146,5 h -48 l 3,148 3,147 25,-3 c 84,-12 170,-13 170,-2 0,7 15,10 43,8 l 42,-3 6,60 c 9,84 10,190 2,181 -4,-3 -8,-32 -10,-62 -2,-31 -5,-70 -7,-87 -3,-18 -5,-34 -5,-37 -1,-9 -41,-7 -41,2 0,4 -45,8 -100,8 H 790 l -2,38 c -1,34 -2,33 -8,-13 -6,-41 -7,-31 -8,52 -1,56 -6,105 -12,108 -6,4 -10,-40 -10,-124 v -130 l -55,2 c -30,2 -55,-1 -55,-5 0,-5 -39,-8 -86,-8 h -86 l 7,38 c 3,21 6,67 5,102 -1,36 -1,76 -1,90 -1,21 -2,22 -10,7 -6,-9 -8,-21 -5,-26 3,-4 -4,-18 -14,-29 -18,-18 -24,-20 -46,-10 -20,9 -30,9 -45,0 -11,-7 -25,-10 -31,-6 -5,4 -14,1 -18,-6 -4,-7 -13,-9 -20,-5 -7,4 -32,8 -56,9 -39,1 -44,-2 -47,-24 -2,-14 -5,12 -6,58 0,49 3,82 9,82 6,0 10,-6 10,-12 0,-10 2,-10 8,-1 6,9 46,13 135,14 l 127,2 v 143 144 h 145 145 v -140 -140 h 145 145 v 139 139 l -142,1 c -77,0 -142,2 -144,4 -1,1 -6,64 -10,140 l -7,137 H 609 471 Z m -11,-600 c -3,-10 -5,-2 -5,17 0,19 2,27 5,18 2,-10 2,-26 0,-35 z m 3,-254 V 4600 H 320 180 v 139 139 l 127,1 c 70,1 129,4 132,6 15,16 21,-24 21,-146 z m 9048,-151 c 8,-8 12,-56 12,-150 v -138 h -150 -150 v 143 c 0,79 3,147 7,150 12,13 268,8 281,-5 z M 128,4569 c 3,-11 2,-11 -7,1 -10,13 -12,13 -21,0 -5,-8 -10,-10 -10,-4 0,27 31,30 38,3 z m 33,-35 -9,-39 -1,50 c -1,33 2,46 9,39 7,-7 7,-24 1,-50 z m 590,52 c 2,-2 3,-68 1,-145 l -3,-140 -135,2 c -110,2 -136,-1 -145,-13 -5,-8 -8,-71 -7,-143 l 3,-127 H 323 180 v 137 c 0,75 2,134 6,131 3,-3 6,-34 6,-69 1,-45 4,-56 9,-39 4,14 7,37 8,53 1,17 7,27 16,27 21,0 19,28 -2,33 -10,3 42,5 115,6 l 132,1 v 145 145 h 138 c 76,0 141,-2 143,-4 z m 9346,-38 c 0,-31 -2,-38 -8,-23 -5,13 -8,15 -8,5 -1,-12 -3,-12 -10,-2 -5,8 -22,12 -42,10 -31,-3 -34,-5 -31,-33 l 4,-30 -24,23 c -13,12 -28,22 -32,22 -14,0 -34,-27 -39,-51 -4,-21 -4,-21 -6,5 -1,28 -2,28 -14,11 -13,-17 -15,-17 -35,3 l -21,21 -4,-32 c -2,-18 -5,-2 -5,34 -1,36 1,69 5,72 3,4 66,7 138,7 h 132 z M 169,4423 c -1,-65 -5,-61 -12,10 -2,26 -1,47 4,47 5,0 9,-26 8,-57 z m 9706,37 c 13,-6 15,-9 5,-9 -8,0 -22,4 -30,9 -18,12 -2,12 25,0 z M 163,4315 c -3,-9 -8,-14 -10,-11 -3,3 -2,9 2,15 9,16 15,13 8,-4 z m 9937,-152 v -138 l -140,-3 -140,-3 v 140 141 h 140 140 z m -740,100 c 0,-16 6,-23 20,-23 13,0 20,-7 20,-20 0,-14 7,-20 21,-20 20,0 21,-4 16,-50 -4,-29 -2,-50 3,-50 6,0 10,-8 10,-17 0,-14 -6,-12 -25,11 -14,16 -25,35 -25,43 0,7 -9,13 -20,13 -11,0 -20,-7 -20,-15 0,-8 5,-15 11,-15 14,0 32,-20 46,-52 7,-16 17,-28 23,-28 5,0 10,-5 10,-11 0,-8 -4,-8 -14,0 -10,8 -21,8 -40,1 -15,-5 -58,-10 -96,-10 h -70 l 1,128 c 1,70 3,129 4,132 2,3 31,5 64,5 57,0 61,-2 61,-22 z m 147,-20 c -3,-10 -5,-4 -5,12 0,17 2,24 5,18 2,-7 2,-21 0,-30 z m 3,-211 c 0,-10 -36,-9 -46,1 -4,4 5,7 19,7 15,0 27,-4 27,-8 z M 754,3983 c 0,-18 -1,-78 -2,-133 l -2,-100 H 617 483 l -6,98 c -12,171 -14,160 41,164 26,2 90,3 142,3 h 95 z m 9056,-100 v -133 h -139 -138 l -7,46 c -3,26 -6,87 -6,136 v 89 l 145,-3 145,-3 z m 334,13 c -3,-15 -8,-25 -11,-23 -2,3 -1,17 3,31 3,15 8,25 11,23 2,-3 1,-17 -3,-31 z M 460,3606 v -136 l -52,1 c -55,0 -150,16 -110,18 12,1 22,7 22,16 0,8 9,15 20,15 17,0 20,7 20,40 0,33 -3,40 -20,40 -14,0 -20,-7 -20,-21 0,-14 -5,-19 -17,-17 -26,5 -29,38 -4,38 18,0 21,6 21,40 0,40 -4,44 -45,40 l -20,-2 20,16 c 19,14 19,15 -9,8 -31,-9 -48,-32 -23,-32 31,0 25,-25 -6,-26 -17,-1 -36,-9 -42,-18 -10,-13 -12,-4 -11,47 l 1,63 137,3 138,2 z m 590,-1 V 3470 H 911 c -137,0 -139,0 -139,23 0,12 -3,73 -6,135 l -5,112 h 144 145 z m 8460,-4 v -140 l -142,2 -143,2 -3,138 -3,137 h 146 145 z m 590,9 c 0,-125 -1,-129 -18,-112 -10,9 -15,19 -11,22 6,5 13,78 10,108 0,6 -10,12 -21,12 -17,0 -20,-7 -20,-40 0,-33 -3,-40 -20,-40 -13,0 -20,-7 -20,-20 0,-13 -7,-20 -20,-20 -13,0 -20,7 -20,20 0,12 -7,20 -16,20 -9,0 -27,-9 -41,-20 -14,-11 -34,-20 -44,-20 -12,0 -19,7 -19,20 0,11 6,20 13,20 8,0 9,2 1,8 -7,4 -14,16 -17,27 -2,11 -5,-8 -6,-42 l -1,-61 93,-6 c 159,-11 166,-13 32,-12 l -130,1 -3,133 -3,132 h 141 140 z M 747,3333 c 0,-71 -2,-111 -4,-90 -6,53 -33,51 -33,-3 0,-29 -4,-40 -15,-40 -8,0 -15,5 -15,10 0,6 -9,10 -20,10 -16,0 -20,7 -20,30 0,23 -4,30 -20,30 -13,0 -20,-7 -20,-20 0,-17 -7,-20 -40,-20 h -40 v 80 c 0,73 -2,80 -20,80 -11,0 -20,6 -20,14 0,8 -3,21 -6,30 -5,14 10,16 134,16 h 140 z m 9062,-12 c 1,-77 -2,-142 -6,-144 -5,-2 -25,-2 -47,1 -40,5 -32,22 12,22 12,0 22,5 22,10 0,6 -7,10 -16,10 -13,0 -15,8 -12,35 3,28 1,34 -12,31 -8,-3 -40,-8 -70,-11 l -56,-7 4,-34 c 3,-25 9,-34 23,-34 10,0 20,-3 22,-7 3,-5 -21,-8 -53,-8 -32,0 -53,3 -47,7 7,4 20,8 30,8 12,0 17,8 16,28 -1,18 -3,21 -6,9 -4,-15 -12,-18 -34,-15 -25,4 -29,1 -29,-19 0,-13 -4,-23 -10,-23 -6,0 -10,53 -10,140 v 140 h 139 139 z m 321,109 c 0,-16 -2,-30 -4,-30 -2,0 -6,14 -8,30 -3,17 -1,30 4,30 4,0 8,-13 8,-30 z M 667,3184 c -3,-3 -12,-4 -19,-1 -8,3 -5,6 6,6 11,1 17,-2 13,-5 z m 8831,-60 c -2,-19 -2,-34 2,-34 4,0 4,-60 1,-187 -1,-22 -4,-22 -141,-22 l -140,-1 v 133 c 0,73 4,137 9,143 6,5 67,8 141,6 l 132,-3 z m -9041,-1 c -3,-10 -5,-4 -5,12 0,17 2,24 5,18 2,-7 2,-21 0,-30 z m 586,-45 c 4,-46 7,-108 7,-138 v -55 l -33,-1 c -17,-1 -36,4 -40,10 -6,8 -10,8 -14,-1 -2,-8 -22,-13 -44,-13 -32,0 -39,4 -39,19 0,22 -40,36 -52,18 -5,-7 -6,0 -4,17 3,16 2,25 -2,21 -4,-3 -7,-12 -7,-18 0,-7 -10,-13 -22,-15 -21,-3 -21,0 -22,117 l -1,121 h 134 133 z m 8784,45 c -3,-10 -5,-4 -5,12 0,17 2,24 5,18 2,-7 2,-21 0,-30 z m 120,31 c -3,-3 -12,-4 -19,-1 -8,3 -5,6 6,6 11,1 17,-2 13,-5 z M 457,3053 c -3,-10 -5,-4 -5,12 0,17 2,24 5,18 2,-7 2,-21 0,-30 z m 9341,-245 -2,-63 -3,57 -4,57 h -120 c -66,-1 -123,2 -126,5 -4,3 53,6 125,6 h 132 z m -261,-10 c -2,-13 -4,-5 -4,17 -1,22 1,32 4,23 2,-10 2,-28 0,-40 z m -221,-221 c 7,-7 7,-154 1,-164 -6,-9 -1,-13 17,-13 33,0 34,-25 4,-57 -15,-16 -33,-23 -58,-23 h -37 l -7,53 c -3,28 -6,90 -6,136 v 84 l 42,-7 c 23,-4 43,-8 44,-9 z m 164,5 c 0,-8 -140,-5 -148,3 -3,3 29,5 71,5 43,0 77,-3 77,-8 z m -79,-23 c 15,-7 24,-7 35,2 10,8 14,8 14,0 0,-6 -5,-11 -11,-11 -6,0 -9,-7 -5,-15 7,-19 1,-19 -19,1 -9,9 -19,14 -22,11 -3,-3 2,-13 11,-22 21,-22 20,-38 -4,-53 -11,-7 -20,-20 -21,-30 -1,-41 -18,25 -18,76 -1,54 5,60 40,41 z m 72,-236 c -7,-2 -19,-2 -25,0 -7,3 -2,5 12,5 14,0 19,-2 13,-5 z M 1257,2208 c -3,-7 -5,-2 -5,12 0,14 2,19 5,13 2,-7 2,-19 0,-25 z m -20,-30 c -3,-8 -6,-5 -6,6 -1,11 2,17 5,13 3,-3 4,-12 1,-19 z m 7970,0 c -3,-8 -6,-5 -6,6 -1,11 2,17 5,13 3,-3 4,-12 1,-19 z M 2875,1140 c 3,-5 1,-10 -4,-10 -6,0 -11,5 -11,10 0,6 2,10 4,10 3,0 8,-4 11,-10 z m 122,-12 c -3,-8 -6,-5 -6,6 -1,11 2,17 5,13 3,-3 4,-12 1,-19 z m 5043,8 c 0,-20 -24,-26 -58,-17 -16,5 -35,5 -43,0 -21,-13 -39,-11 -39,5 0,11 15,16 53,19 28,2 60,4 70,5 9,1 17,-4 17,-12 z m -5801,0 c -8,-8 -78,-10 -85,-3 -4,4 14,7 41,7 27,0 46,-2 44,-4 z m 174,-3 c -13,-2 -35,-2 -50,0 -16,2 -5,4 22,4 28,0 40,-2 28,-4 z m 2242,-22 c 3,-5 1,-12 -5,-16 -5,-3 -10,1 -10,9 0,18 6,21 15,7 z m 2615,-26 c 0,-8 -6,-15 -14,-15 -20,0 -29,17 -14,23 22,9 28,7 28,-8 z m -3745,-2 c -11,-3 -23,-10 -27,-16 -4,-6 -10,-8 -15,-4 -10,11 17,27 42,26 l 20,-1 z"
       id="path64" />
    <path
       d="m 192,4095 c 0,-16 2,-22 5,-12 2,9 2,23 0,30 -3,6 -5,-1 -5,-18 z"
       id="path65" />
    <path
       d="m 9985,4122 c -3,-3 -5,-14 -5,-24 0,-13 8,-18 30,-18 23,0 30,5 30,19 0,18 -42,36 -55,23 z"
       id="path66" />
    <path
       d="m 317,3723 c 23,-3 33,-10 36,-26 4,-18 5,-17 6,6 1,25 -2,27 -36,25 -37,-1 -37,-1 -6,-5 z"
       id="path67" />
    <path
       d="m 191,3664 c 0,-11 3,-14 6,-6 3,7 2,16 -1,19 -3,4 -6,-2 -5,-13 z"
       id="path68" />
    <path
       d="m 9913,3620 c 0,-30 2,-43 4,-27 2,15 2,39 0,55 -2,15 -4,2 -4,-28 z"
       id="path69" />
    <path
       d="m 9770,3320 c 0,-5 5,-10 10,-10 6,0 10,5 10,10 0,6 -4,10 -10,10 -5,0 -10,-4 -10,-10 z"
       id="path70" />
    <path
       d="m 791,3038 c -1,-10 6,-18 14,-18 8,0 15,5 15,11 0,5 -4,8 -9,5 -5,-4 -12,0 -14,6 -3,8 -6,6 -6,-4 z"
       id="path71" />
    <path
       d="m 9371,2474 c 0,-11 3,-14 6,-6 3,7 2,16 -1,19 -3,4 -6,-2 -5,-13 z"
       id="path72" />
    <path
       d="m 1057,5643 c -3,-49 -5,-110 -4,-138 l 2,-50 108,-2 107,-2 v 39 c 0,22 -3,39 -7,38 -5,-2 -8,2 -8,7 0,6 3,9 7,8 5,-2 7,41 6,95 l -2,97 -6,-90 c -4,-61 -8,-84 -14,-72 -5,10 -6,49 -4,88 l 5,69 h -92 -93 z"
       id="path73" />
    <path
       d="m 9220,5716 c 0,-5 23,-6 50,-4 46,5 50,3 50,-16 0,-17 2,-18 10,-6 7,11 10,3 11,-30 l 1,-45 10,52 c 9,48 12,52 41,56 18,3 -14,4 -70,3 -57,0 -103,-5 -103,-10 z"
       id="path74" />
    <path
       d="m 9436,5718 c 3,-4 14,-8 25,-8 16,0 19,-7 19,-55 0,-48 -2,-55 -20,-55 -11,0 -20,7 -20,15 0,8 5,15 10,15 18,0 11,25 -10,38 -28,17 -50,-4 -43,-41 4,-22 2,-27 -16,-27 -14,0 -21,-6 -21,-20 0,-13 7,-20 20,-20 13,0 20,-7 20,-20 0,-13 7,-20 20,-20 13,0 20,7 20,20 0,13 7,20 20,20 17,0 20,-7 20,-40 0,-34 -3,-40 -22,-41 -18,-1 -19,-2 -5,-6 34,-9 5,-23 -46,-22 -45,1 -48,3 -22,9 20,5 14,6 -15,2 -25,-3 -68,-6 -97,-6 l -51,-1 1,-140 2,-140 148,-3 147,-3 v 140 c 0,137 0,140 -22,144 l -23,4 23,2 c 20,1 22,6 22,55 0,30 -4,58 -10,61 -5,3 -10,37 -10,74 v 69 l -34,4 c -19,2 -32,0 -30,-4 z m -6,-73 c 0,-8 -4,-15 -10,-15 -5,0 -10,7 -10,15 0,8 5,15 10,15 6,0 10,-7 10,-15 z"
       id="path75" />
    <path
       d="m 9288,5662 c -26,-3 -41,-22 -18,-22 6,0 10,-9 10,-20 0,-32 37,-26 43,8 7,33 0,39 -35,34 z"
       id="path76" />
    <path
       d="m 9223,5600 c 0,-25 2,-35 4,-22 2,12 2,32 0,45 -2,12 -4,2 -4,-23 z"
       id="path77" />
    <path
       d="m 9245,5550 c -4,-6 -11,-8 -16,-5 -5,4 -9,-12 -9,-34 0,-23 5,-41 10,-41 6,0 10,11 10,25 0,18 5,25 20,25 13,0 20,7 20,20 0,21 -24,28 -35,10 z"
       id="path78" />
    <path
       d="m 10128,5443 c 7,-3 16,-2 19,1 4,3 -2,6 -13,5 -11,0 -14,-3 -6,-6 z"
       id="path79" />
    <path
       d="m 668,5143 c -40,-6 -34,-23 7,-23 24,0 35,5 35,15 0,8 -3,14 -7,14 -5,-1 -20,-4 -35,-6 z"
       id="path80" />
    <path
       d="m 732,5130 c 0,-14 2,-19 5,-12 2,6 2,18 0,25 -3,6 -5,1 -5,-13 z"
       id="path81" />
    <path
       d="m 9192,5141 c -8,-4 -13,-17 -12,-27 6,-50 -1,-125 -10,-119 -6,4 -10,-13 -10,-44 0,-48 10,-64 25,-40 5,6 12,4 21,-8 11,-16 13,0 14,115 0,72 -3,132 -7,132 -5,0 -14,-4 -21,-9 z"
       id="path82" />
    <path
       d="m 9163,5090 c 0,-30 2,-43 4,-27 2,15 2,39 0,55 -2,15 -4,2 -4,-28 z"
       id="path83" />
    <path
       d="m 304,5121 c 3,-5 15,-7 26,-4 28,7 25,13 -6,13 -14,0 -23,-4 -20,-9 z"
       id="path84" />
    <path
       d="m 916,5011 c -3,-5 1,-12 10,-15 25,-10 34,-7 34,9 0,16 -35,21 -44,6 z"
       id="path85" />
    <path
       d="m 10170,4700 c 0,-5 5,-10 10,-10 6,0 10,5 10,10 0,6 -4,10 -10,10 -5,0 -10,-4 -10,-10 z"
       id="path86" />
    <path
       d="m 10210,4651 c 0,-5 -12,-14 -27,-19 -27,-10 -26,-10 15,-11 36,-1 42,2 42,19 0,11 -7,20 -15,20 -8,0 -15,-4 -15,-9 z"
       id="path87" />
    <path
       d="m 1,3885 c 1,-106 2,-115 20,-115 12,0 19,7 19,20 0,12 9,38 20,60 11,22 20,46 20,55 0,11 11,15 40,15 34,0 40,3 40,21 0,19 -4,21 -30,16 -17,-4 -30,-2 -30,3 0,6 9,10 20,10 11,0 20,5 20,10 0,6 -13,10 -30,10 -24,0 -30,-4 -30,-21 0,-15 -4,-19 -16,-15 -9,3 -18,6 -20,6 -2,0 -4,9 -4,20 0,13 -7,20 -20,20 -18,0 -20,-7 -19,-115 z"
       id="path88" />
    <path
       d="m 9164,2755 c 0,-55 1,-76 3,-47 2,29 2,74 0,100 -2,26 -3,2 -3,-53 z"
       id="path89" />
    <path
       d="m 4068,1153 c 6,-2 18,-2 25,0 6,3 1,5 -13,5 -14,0 -19,-2 -12,-5 z"
       id="path90" />
    <path
       d="m 4658,1153 c 12,-2 30,-2 40,0 9,3 -1,5 -23,4 -22,0 -30,-2 -17,-4 z"
       id="path91" />
    <path
       d="m 6673,1153 c 7,-7 139,-4 146,3 2,2 -31,4 -74,4 -43,0 -75,-3 -72,-7 z"
       id="path92" />
    <path
       d="m 7323,1143 c 9,-2 23,-2 30,0 6,3 -1,5 -18,5 -16,0 -22,-2 -12,-5 z"
       id="path93" />
    <path
       d="m 6263,1133 c 9,-2 25,-2 35,0 9,3 1,5 -18,5 -19,0 -27,-2 -17,-5 z"
       id="path94" />
    <path
       d="m 4065,1120 c -4,-6 10,-10 35,-10 25,0 39,4 35,10 -3,6 -19,10 -35,10 -16,0 -32,-4 -35,-10 z"
       id="path95" />
    <path
       d="m 6615,1090 c -3,-5 -1,-10 4,-10 6,0 11,5 11,10 0,6 -2,10 -4,10 -3,0 -8,-4 -11,-10 z"
       id="path96" />
  </g>
</svg>
